<svg id="visual" viewBox="0 0 960 540" width="960" height="540" xmlns="http://www.w3.org/2000/svg" xmlns:xlink="http://www.w3.org/1999/xlink" version="1.1"><rect width="960" height="540" fill="#e5e7eb"></rect><g><g transform="translate(953 192)"><path d="M29.7 -30.8C36.4 -23.1 38 -11.6 39 1C40.1 13.6 40.5 27.3 33.9 34.2C27.3 41.1 13.6 41.3 3.3 38C-7 34.7 -13.9 27.8 -18.9 20.9C-23.8 13.9 -26.6 7 -27.9 -1.2C-29.1 -9.4 -28.7 -18.9 -23.8 -26.6C-18.9 -34.2 -9.4 -40.1 1.1 -41.2C11.6 -42.3 23.1 -38.5 29.7 -30.8Z" fill="#dadcdf"></path></g><g transform="translate(859 318)"><path d="M28.3 -26C36.9 -19.6 44.3 -9.8 42.6 -1.7C40.9 6.5 30.2 12.9 21.6 21.8C12.9 30.7 6.5 42 -2.4 44.4C-11.3 46.8 -22.6 40.4 -31.7 31.5C-40.8 22.6 -47.8 11.3 -47.5 0.3C-47.2 -10.7 -39.6 -21.4 -30.5 -27.8C-21.4 -34.2 -10.7 -36.3 -0.4 -35.9C9.8 -35.4 19.6 -32.5 28.3 -26Z" fill="#dadcdf"></path></g><g transform="translate(639 201)"><path d="M34.8 -34.6C42.7 -26.9 45.1 -13.4 44.8 -0.3C44.5 12.8 41.5 25.7 33.6 34.3C25.7 42.9 12.8 47.2 2.7 44.6C-7.5 41.9 -15 32.2 -23.5 23.6C-32 15 -41.4 7.5 -42 -0.6C-42.7 -8.7 -34.4 -17.4 -25.9 -25.2C-17.4 -32.9 -8.7 -39.6 2.4 -41.9C13.4 -44.3 26.9 -42.3 34.8 -34.6Z" fill="#dadcdf"></path></g><g transform="translate(258 397)"><path d="M23.5 -24.2C29.4 -17.7 32.3 -8.8 33.5 1.2C34.7 11.2 34.2 22.4 28.3 31C22.4 39.6 11.2 45.5 1.4 44.1C-8.4 42.7 -16.8 33.9 -21.8 25.4C-26.9 16.8 -28.6 8.4 -28 0.6C-27.3 -7.2 -24.4 -14.3 -19.4 -20.8C-14.3 -27.3 -7.2 -33.1 0.8 -33.9C8.8 -34.8 17.7 -30.6 23.5 -24.2Z" fill="#dadcdf"></path></g><g transform="translate(420 433)"><path d="M41.1 -43.5C48.7 -33.4 47.3 -16.7 46.7 -0.6C46 15.5 46.2 30.9 38.6 37.1C30.9 43.3 15.5 40.2 1.9 38.3C-11.6 36.3 -23.1 35.5 -34.9 29.3C-46.6 23.1 -58.4 11.6 -57.4 1C-56.4 -9.6 -42.5 -19.1 -30.8 -29.2C-19.1 -39.3 -9.6 -50 3.6 -53.5C16.7 -57.1 33.4 -53.6 41.1 -43.5Z" fill="#dadcdf"></path></g><g transform="translate(105 232)"><path d="M43.4 -41.8C53.7 -33 58 -16.5 53.6 -4.4C49.3 7.8 36.3 15.5 25.9 22.3C15.5 29.1 7.8 34.9 -2.5 37.3C-12.7 39.8 -25.5 39 -30.9 32.3C-36.4 25.5 -34.6 12.7 -32.9 1.7C-31.2 -9.4 -29.7 -18.7 -24.2 -27.5C-18.7 -36.4 -9.4 -44.6 3.6 -48.2C16.5 -51.7 33 -50.6 43.4 -41.8Z" fill="#dadcdf"></path></g><g transform="translate(765 61)"><path d="M29.8 -25.2C41.4 -18.2 55.5 -9.1 55.7 0.2C55.9 9.6 42.3 19.1 30.7 24.1C19.1 29.1 9.6 29.5 -3.6 33.1C-16.7 36.7 -33.3 43.3 -45.3 38.3C-57.2 33.3 -64.4 16.7 -63.8 0.5C-63.3 -15.6 -55 -31.2 -43.1 -38.1C-31.2 -45 -15.6 -43.3 -3.2 -40.1C9.1 -36.8 18.2 -32.1 29.8 -25.2Z" fill="#dadcdf"></path></g><g transform="translate(740 491)"><path d="M41.6 -38.7C49.8 -33.4 49.5 -16.7 48.3 -1.2C47.2 14.4 45.2 28.8 37 37.1C28.8 45.5 14.4 47.8 2.5 45.3C-9.4 42.8 -18.8 35.5 -25.3 27.1C-31.9 18.8 -35.5 9.4 -35.5 0.1C-35.4 -9.3 -31.6 -18.5 -25 -23.8C-18.5 -29.1 -9.3 -30.4 3.7 -34.1C16.7 -37.8 33.4 -44 41.6 -38.7Z" fill="#dadcdf"></path></g><g transform="translate(269 32)"><path d="M43.7 -44.9C53.6 -33.8 56.4 -16.9 52.7 -3.7C49 9.5 38.8 19.1 29 29.6C19.1 40.2 9.5 51.8 -2.9 54.6C-15.3 57.5 -30.6 51.7 -38.1 41.2C-45.6 30.6 -45.3 15.3 -46.2 -0.8C-47 -16.9 -48.9 -33.9 -41.4 -44.9C-33.9 -55.9 -16.9 -61 0 -61C16.9 -61 33.8 -55.9 43.7 -44.9Z" fill="#dadcdf"></path></g><g transform="translate(470 286)"><path d="M42 -37.4C51.5 -32.4 54.4 -16.2 50.4 -4.1C46.3 8 35.2 16.1 25.6 24.6C16.1 33.1 8 42.2 -2.7 44.9C-13.4 47.6 -26.9 44 -38.6 35.4C-50.3 26.9 -60.3 13.4 -60.4 -0.1C-60.5 -13.6 -50.6 -27.2 -38.9 -32.1C-27.2 -37 -13.6 -33.3 1.3 -34.7C16.2 -36 32.4 -42.3 42 -37.4Z" fill="#dadcdf"></path></g><g transform="translate(54 54)"><path d="M35 -40.5C41.1 -28.8 39 -14.4 35.7 -3.3C32.4 7.9 28 15.7 21.9 21.9C15.7 28.2 7.9 32.8 -0.4 33.2C-8.7 33.7 -17.5 29.9 -25.1 23.7C-32.7 17.5 -39.3 8.7 -42.1 -2.8C-44.8 -14.3 -43.9 -28.6 -36.3 -40.3C-28.6 -52 -14.3 -61.1 0 -61.2C14.4 -61.2 28.8 -52.2 35 -40.5Z" fill="#dadcdf"></path></g><g transform="translate(413 103)"><path d="M22.8 -26.3C27.9 -17.7 29.2 -8.8 30.3 1C31.3 10.9 32 21.8 26.9 28.4C21.8 35.1 10.9 37.5 0.2 37.3C-10.4 37.1 -20.9 34.2 -29 27.5C-37.1 20.9 -42.9 10.4 -43.6 -0.7C-44.3 -11.8 -39.9 -23.7 -31.8 -32.3C-23.7 -40.9 -11.8 -46.2 -1.5 -44.7C8.8 -43.2 17.7 -34.9 22.8 -26.3Z" fill="#dadcdf"></path></g><g transform="translate(595 453)"><path d="M26.3 -21.1C37.4 -15.2 52.1 -7.6 56.3 4.2C60.5 16.1 54.4 32.1 43.3 42.8C32.1 53.5 16.1 58.8 0.3 58.5C-15.5 58.2 -31 52.4 -36.2 41.7C-41.4 31 -36.3 15.5 -33.5 2.8C-30.8 -10 -30.3 -20 -25.2 -25.8C-20 -31.7 -10 -33.5 -1.2 -32.3C7.6 -31.1 15.2 -27 26.3 -21.1Z" fill="#dadcdf"></path></g><g transform="translate(3 425)"><path d="M37 -41C43.5 -30.5 41.2 -15.2 39.4 -1.8C37.7 11.7 36.4 23.4 29.9 30.2C23.4 37 11.7 38.8 0.2 38.6C-11.4 38.5 -22.8 36.3 -32.8 29.6C-42.8 22.8 -51.4 11.4 -49.3 2.1C-47.2 -7.2 -34.4 -14.4 -24.4 -24.9C-14.4 -35.4 -7.2 -49.2 4 -53.2C15.2 -57.3 30.5 -51.5 37 -41Z" fill="#dadcdf"></path></g><g transform="translate(956 4)"><path d="M20.4 -26.9C25.4 -15.4 27.6 -7.7 31.7 4.1C35.7 15.8 41.6 31.6 36.6 42.6C31.6 53.6 15.8 59.8 -0.2 60C-16.1 60.2 -32.3 54.3 -38.5 43.3C-44.7 32.3 -41.1 16.1 -36.5 4.6C-31.9 -6.9 -26.2 -13.8 -20 -25.2C-13.8 -36.7 -6.9 -52.7 0.4 -53.1C7.7 -53.5 15.4 -38.3 20.4 -26.9Z" fill="#dadcdf"></path></g><g transform="translate(307 219)"><path d="M22.4 -20.6C29.6 -15.2 36.5 -7.6 38.8 2.4C41.2 12.3 39.1 24.6 31.8 31.4C24.6 38.2 12.3 39.4 2.2 37.2C-7.8 34.9 -15.7 29.2 -23.3 22.4C-30.8 15.7 -38.1 7.8 -40.4 -2.3C-42.7 -12.4 -39.9 -24.8 -32.4 -30.2C-24.8 -35.6 -12.4 -33.9 -2.4 -31.5C7.6 -29.1 15.2 -25.9 22.4 -20.6Z" fill="#dadcdf"></path></g><g transform="translate(882 526)"><path d="M21.7 -20.3C27.9 -15.5 32.6 -7.8 32.6 0C32.7 7.9 28.1 15.7 21.9 22.3C15.7 28.9 7.9 34.2 -3.6 37.8C-15 41.3 -30 43.1 -35.9 36.6C-41.9 30 -38.8 15 -35.6 3.2C-32.4 -8.6 -29.1 -17.2 -23.1 -22C-17.2 -26.8 -8.6 -27.8 -0.4 -27.4C7.8 -27 15.5 -25.2 21.7 -20.3Z" fill="#dadcdf"></path></g><g transform="translate(141 516)"><path d="M22.4 -24.9C28.1 -16.7 31.3 -8.3 35.3 4C39.3 16.4 44.2 32.7 38.5 41.6C32.7 50.5 16.4 51.9 4.1 47.7C-8.1 43.6 -16.1 33.9 -24.8 25C-33.5 16.1 -42.8 8.1 -42.9 -0.1C-43 -8.3 -33.9 -16.5 -25.2 -24.7C-16.5 -33 -8.3 -41.2 0 -41.2C8.3 -41.2 16.7 -33.1 22.4 -24.9Z" fill="#dadcdf"></path></g><g transform="translate(587 25)"><path d="M34.1 -31.2C44.3 -24 52.6 -12 50.6 -2C48.7 8.1 36.4 16.1 26.3 25.7C16.1 35.2 8.1 46.1 -1.3 47.4C-10.6 48.7 -21.2 40.2 -26.6 30.7C-32 21.2 -32.3 10.6 -35.1 -2.8C-37.9 -16.2 -43.2 -32.4 -37.8 -39.6C-32.4 -46.8 -16.2 -44.9 -2.1 -42.8C12 -40.7 24 -38.3 34.1 -31.2Z" fill="#dadcdf"></path></g><g transform="translate(705 332)"><path d="M20.7 -27.3C25.7 -15.7 27.8 -7.9 30.2 2.4C32.6 12.7 35.4 25.4 30.4 32.9C25.4 40.3 12.7 42.5 -1.8 44.3C-16.4 46.2 -32.8 47.7 -41.7 40.3C-50.5 32.8 -51.8 16.4 -47.5 4.3C-43.2 -7.8 -33.4 -15.7 -24.5 -27.3C-15.7 -38.9 -7.8 -54.2 0 -54.2C7.9 -54.2 15.7 -38.9 20.7 -27.3Z" fill="#dadcdf"></path></g><g transform="translate(305 536)"><path d="M31.3 -29.4C37.8 -24.9 38.3 -12.4 37.7 -0.6C37.1 11.2 35.4 22.4 28.9 31.9C22.4 41.3 11.2 49 1.5 47.5C-8.2 46.1 -16.5 35.4 -21.2 25.9C-26 16.5 -27.2 8.2 -29.2 -2C-31.2 -12.3 -34 -24.5 -29.3 -29.1C-24.5 -33.6 -12.3 -30.4 0.1 -30.4C12.4 -30.5 24.9 -33.9 31.3 -29.4Z" fill="#dadcdf"></path></g></g></svg>